<?xml version="1.0"?>
<svg version="1.1" xmlns="http://www.w3.org/2000/svg" xmlns:xlink="http://www.w3.org/1999/xlink" width="158.768" height="35">
    <desc iVinci="yes" version="4.5" gridStep="20" showGrid="no" snapToGrid="no" codePlatform="0"/>
    <g id="Layer1" opacity="1">
        <g id="Shape1">
            <desc shapeID="1" type="2" basicInfo-basicType="0" basicInfo-roundedRectRadius="12" basicInfo-polygonSides="6" basicInfo-starPoints="5" bounding="rect(-124,-20,248,40)" text="S-VP.COM" font-familyName="Helvetica" font-pixelSize="20" font-bold="1" font-underline="0" font-alignment="0" strokeStyle="0" markerStart="0" markerEnd="0" shadowEnabled="0" shadowOffsetX="0" shadowOffsetY="2" shadowBlur="4" shadowOpacity="160" blurEnabled="0" blurRadius="4" transform="matrix(1,0,0,1,165.5,25.1855)" pers-center="0,0" pers-size="0,0" pers-start="0,0" pers-end="0,0" locked="0" mesh="" flag=""/>
            <path id="shapePath1" d="M45.2012,26.1328 C45.2923,26.7904 45.4714,27.2819 45.7383,27.6074 C46.2266,28.1999 47.0631,28.4961 48.248,28.4961 C48.9577,28.4961 49.5339,28.418 49.9766,28.2617 C50.8164,27.9622 51.2363,27.4056 51.2363,26.5918 C51.2363,26.1165 51.028,25.7487 50.6113,25.4883 C50.1947,25.2344 49.5404,25.0098 48.6484,24.8145 L47.125,24.4727 C45.6276,24.1341 44.5924,23.7663 44.0195,23.3691 C43.0495,22.7051 42.5645,21.6667 42.5645,20.2539 C42.5645,18.9648 43.0332,17.8939 43.9707,17.041 C44.9082,16.1882 46.2852,15.7617 48.1016,15.7617 C49.6185,15.7617 50.9124,16.1637 51.9834,16.9678 C53.0544,17.7718 53.6159,18.9388 53.668,20.4688 L50.7773,20.4688 C50.7253,19.6029 50.3477,18.9876 49.6445,18.623 C49.1758,18.3822 48.5931,18.2617 47.8965,18.2617 C47.1217,18.2617 46.5033,18.418 46.041,18.7305 C45.5788,19.043 45.3477,19.4792 45.3477,20.0391 C45.3477,20.5534 45.5755,20.9375 46.0312,21.1914 C46.3242,21.3607 46.9492,21.5592 47.9062,21.7871 L50.3867,22.3828 C51.474,22.6432 52.2943,22.9915 52.8477,23.4277 C53.707,24.1048 54.1367,25.0846 54.1367,26.3672 C54.1367,27.6823 53.6338,28.7744 52.6279,29.6436 C51.6221,30.5127 50.2012,30.9473 48.3652,30.9473 C46.4902,30.9473 45.0156,30.5192 43.9414,29.6631 C42.8672,28.807 42.3301,27.6302 42.3301,26.1328 L45.2012,26.1328 M55.2871,23.6816 L60.8926,23.6816 L60.8926,26.3184 L55.2871,26.3184 L55.2871,23.6816 M71.4355,16.1816 L74.5605,16.1816 L69.6484,30.5762 L66.8066,30.5762 L61.9434,16.1816 L65.1562,16.1816 L68.2812,27.1094 L71.4355,16.1816 M83.8506,19.1602 C83.4567,18.8411 82.9049,18.6816 82.1953,18.6816 L79.3926,18.6816 L79.3926,22.9199 L82.1953,22.9199 C82.9049,22.9199 83.4567,22.7474 83.8506,22.4023 C84.2445,22.0573 84.4414,21.5104 84.4414,20.7617 C84.4414,20.013 84.2445,19.4792 83.8506,19.1602 M86.1309,24.3457 C85.2715,25.0488 84.0443,25.4004 82.4492,25.4004 L79.3926,25.4004 L79.3926,30.5762 L76.4043,30.5762 L76.4043,16.1816 L82.6738,16.1816 C84.1191,16.1816 85.2715,16.5527 86.1309,17.2949 C86.9902,18.0371 87.4199,19.1862 87.4199,20.7422 C87.4199,22.4414 86.9902,23.6426 86.1309,24.3457 M86.8125,27.666 L89.7715,27.666 L89.7715,30.5762 L86.8125,30.5762 L86.8125,27.666 M94.0293,17.6855 C95.2012,16.5007 96.6921,15.9082 98.502,15.9082 C100.924,15.9082 102.695,16.7025 103.814,18.291 C104.433,19.1829 104.765,20.0781 104.811,20.9766 L101.803,20.9766 C101.607,20.2865 101.357,19.7656 101.051,19.4141 C100.504,18.7891 99.6934,18.4766 98.6191,18.4766 C97.5254,18.4766 96.6628,18.9176 96.0312,19.7998 C95.3997,20.682 95.084,21.9303 95.084,23.5449 C95.084,25.1595 95.4176,26.3688 96.085,27.1729 C96.7523,27.9769 97.6003,28.3789 98.6289,28.3789 C99.6836,28.3789 100.488,28.0339 101.041,27.3438 C101.347,26.9727 101.601,26.416 101.803,25.6738 L104.781,25.6738 C104.521,27.2428 103.855,28.5189 102.784,29.502 C101.713,30.485 100.341,30.9766 98.668,30.9766 C96.5977,30.9766 94.9701,30.3125 93.7852,28.9844 C92.6003,27.6497 92.0078,25.8203 92.0078,23.4961 C92.0078,20.9831 92.6816,19.0462 94.0293,17.6855 M116.274,27.1094 C116.974,26.2305 117.324,24.9805 117.324,23.3594 C117.324,21.7448 116.974,20.4964 116.274,19.6143 C115.575,18.7321 114.629,18.291 113.438,18.291 C112.246,18.291 111.296,18.7305 110.586,19.6094 C109.876,20.4883 109.521,21.7383 109.521,23.3594 C109.521,24.9805 109.876,26.2305 110.586,27.1094 C111.296,27.9883 112.246,28.4277 113.438,28.4277 C114.629,28.4277 115.575,27.9883 116.274,27.1094 M118.154,29.2969 C117.067,30.4167 115.495,30.9766 113.438,30.9766 C111.38,30.9766 109.808,30.4167 108.721,29.2969 C107.262,27.9232 106.533,25.944 106.533,23.3594 C106.533,20.7227 107.262,18.7435 108.721,17.4219 C109.808,16.3021 111.38,15.7422 113.438,15.7422 C115.495,15.7422 117.067,16.3021 118.154,17.4219 C119.606,18.7435 120.332,20.7227 120.332,23.3594 C120.332,25.944 119.606,27.9232 118.154,29.2969 M132.158,16.1816 L136.484,16.1816 L136.484,30.5762 L133.682,30.5762 L133.682,20.8398 C133.682,20.5599 133.685,20.1676 133.691,19.6631 C133.698,19.1585 133.701,18.7695 133.701,18.4961 L130.977,30.5762 L128.057,30.5762 L125.352,18.4961 C125.352,18.7695 125.355,19.1585 125.361,19.6631 C125.368,20.1676 125.371,20.5599 125.371,20.8398 L125.371,30.5762 L122.568,30.5762 L122.568,16.1816 L126.943,16.1816 L129.561,27.5 L132.158,16.1816 Z" style="stroke:none;fill-rule:nonzero;fill:#ffffff;fill-opacity:1;"/>
        </g>
    </g>
</svg>
