<?xml version="1.0"?>
<svg version="1.1" xmlns="http://www.w3.org/2000/svg" xmlns:xlink="http://www.w3.org/1999/xlink" width="158.768" height="35">
    <desc iVinci="yes" version="4.6" gridStep="20" showGrid="no" snapToGrid="no" codePlatform="0"/>
    <g id="Layer1" name="Layer 1" opacity="1">
        <g id="Shape1">
            <desc shapeID="1" type="0" basicInfo-basicType="0" basicInfo-roundedRectRadius="12" basicInfo-polygonSides="6" basicInfo-starPoints="5" bounding="rect(-2.265,-7.41,4.53,14.82)" text="" font-familyName="" font-pixelSize="20" font-bold="0" font-underline="0" font-alignment="1" strokeStyle="0" markerStart="0" markerEnd="0" shadowEnabled="0" shadowOffsetX="0" shadowOffsetY="2" shadowBlur="4" shadowOpacity="160" blurEnabled="0" blurRadius="4" transform="matrix(0.758467,0,0,0.758467,13.0679,23.628)" pers-center="0,0" pers-size="0,0" pers-start="0,0" pers-end="0,0" locked="0" mesh="" flag=""/>
            <path id="shapePath1" d="M11.3499,19.8054 C11.3499,18.7587 12.0553,18.0078 13.0792,18.0078 C14.1032,18.0078 14.7858,18.7359 14.7858,19.8054 C14.7858,20.8065 14.1032,21.5802 13.0337,21.5802 C12.0553,21.5809 11.3499,20.8065 11.3499,19.8054 M11.3499,27.4735 C11.3499,26.4268 12.0553,25.6759 13.0792,25.6759 C14.1032,25.6759 14.7858,26.404 14.7858,27.4735 C14.7858,28.4746 14.1032,29.2483 13.0337,29.2483 C12.0553,29.2483 11.3499,28.4754 11.3499,27.4735 Z" style="stroke:none;fill-rule:nonzero;fill:#fcfcfc;fill-opacity:1;"/>
        </g>
        <g id="Shape2">
            <desc shapeID="2" type="0" basicInfo-basicType="0" basicInfo-roundedRectRadius="12" basicInfo-polygonSides="6" basicInfo-starPoints="5" bounding="rect(-2.265,-7.41,4.53,14.82)" text="" font-familyName="" font-pixelSize="20" font-bold="0" font-underline="0" font-alignment="1" strokeStyle="0" markerStart="0" markerEnd="0" shadowEnabled="0" shadowOffsetX="0" shadowOffsetY="2" shadowBlur="4" shadowOpacity="160" blurEnabled="0" blurRadius="4" transform="matrix(0.758467,0,0,0.758467,18.4378,23.628)" pers-center="0,0" pers-size="0,0" pers-start="0,0" pers-end="0,0" locked="0" mesh="" flag=""/>
            <path id="shapePath2" d="M16.7199,19.8054 C16.7199,18.7587 17.4252,18.0078 18.4492,18.0078 C19.4731,18.0078 20.1557,18.7359 20.1557,19.8054 C20.1557,20.8065 19.4731,21.5802 18.4037,21.5802 C17.4252,21.5809 16.7199,20.8065 16.7199,19.8054 M16.7199,27.4735 C16.7199,26.4268 17.4252,25.6759 18.4492,25.6759 C19.4731,25.6759 20.1557,26.404 20.1557,27.4735 C20.1557,28.4746 19.4731,29.2483 18.4037,29.2483 C17.4252,29.2483 16.7199,28.4754 16.7199,27.4735 Z" style="stroke:none;fill-rule:nonzero;fill:#fcfcfc;fill-opacity:1;"/>
        </g>
        <g id="Shape3">
            <desc shapeID="3" type="0" basicInfo-basicType="0" basicInfo-roundedRectRadius="12" basicInfo-polygonSides="6" basicInfo-starPoints="5" bounding="rect(-2.265,-7.41,4.53,14.82)" text="" font-familyName="" font-pixelSize="20" font-bold="0" font-underline="0" font-alignment="1" strokeStyle="0" markerStart="0" markerEnd="0" shadowEnabled="0" shadowOffsetX="0" shadowOffsetY="2" shadowBlur="4" shadowOpacity="160" blurEnabled="0" blurRadius="4" transform="matrix(0.758467,0,0,0.758467,23.8077,23.628)" pers-center="0,0" pers-size="0,0" pers-start="0,0" pers-end="0,0" locked="0" mesh="" flag=""/>
            <path id="shapePath3" d="M22.0898,19.8054 C22.0898,18.7587 22.7952,18.0078 23.8191,18.0078 C24.843,18.0078 25.5257,18.7359 25.5257,19.8054 C25.5257,20.8065 24.843,21.5802 23.7736,21.5802 C22.7952,21.5809 22.0898,20.8065 22.0898,19.8054 M22.0898,27.4735 C22.0898,26.4268 22.7952,25.6759 23.8191,25.6759 C24.843,25.6759 25.5257,26.404 25.5257,27.4735 C25.5257,28.4746 24.843,29.2483 23.7736,29.2483 C22.7952,29.2483 22.0898,28.4754 22.0898,27.4735 Z" style="stroke:none;fill-rule:nonzero;fill:#fcfcfc;fill-opacity:1;"/>
        </g>
        <g id="Shape4">
            <desc shapeID="4" type="0" basicInfo-basicType="0" basicInfo-roundedRectRadius="12" basicInfo-polygonSides="6" basicInfo-starPoints="5" bounding="rect(-6.57,-10.44,13.14,20.88)" text="" font-familyName="" font-pixelSize="20" font-bold="0" font-underline="0" font-alignment="1" strokeStyle="0" markerStart="0" markerEnd="0" shadowEnabled="0" shadowOffsetX="0" shadowOffsetY="2" shadowBlur="4" shadowOpacity="160" blurEnabled="0" blurRadius="4" transform="matrix(0.758467,0,0,0.758467,36.9238,21.3299)" pers-center="0,0" pers-size="0,0" pers-start="0,0" pers-end="0,0" locked="0" mesh="" flag=""/>
            <path id="shapePath4" d="M32.5786,25.9489 C33.466,26.4715 34.854,26.9266 36.2875,26.9266 C38.0623,26.9266 39.0635,26.0855 39.0635,24.8332 C39.0635,23.6735 38.2898,22.9902 36.3557,22.2855 C33.8073,21.3754 32.1918,20.0329 32.1918,17.8258 C32.1918,15.3001 34.2851,13.4115 37.6292,13.4115 C39.2903,13.4115 40.4962,13.7756 41.2926,14.1851 L40.6327,16.4378 C40.0639,16.142 38.9945,15.7096 37.561,15.7096 C35.7861,15.7096 35.0353,16.6426 35.0353,17.5527 C35.0353,18.7359 35.9227,19.282 37.9705,20.0784 C40.6327,21.0796 41.907,22.4221 41.907,24.6292 C41.907,27.1094 40.0411,29.2483 36.1047,29.2483 C34.4664,29.2483 32.7826,28.7932 31.9407,28.2698 L32.5786,25.9489 Z" style="stroke:none;fill-rule:nonzero;fill:#fcfcfc;fill-opacity:1;"/>
        </g>
        <g id="Shape5">
            <desc shapeID="5" type="0" basicInfo-basicType="0" basicInfo-roundedRectRadius="12" basicInfo-polygonSides="6" basicInfo-starPoints="5" bounding="rect(-3.8245,-1.275,7.649,2.55)" text="" font-familyName="" font-pixelSize="20" font-bold="0" font-underline="0" font-alignment="1" strokeStyle="0" markerStart="0" markerEnd="0" shadowEnabled="0" shadowOffsetX="0" shadowOffsetY="2" shadowBlur="4" shadowOpacity="160" blurEnabled="0" blurRadius="4" transform="matrix(0.758467,0,0,0.758467,46.6061,22.934)" pers-center="0,0" pers-size="0,0" pers-start="0,0" pers-end="0,0" locked="0" mesh="" flag=""/>
            <path id="shapePath5" d="M49.5068,21.967 L49.5068,23.9011 L43.7053,23.9011 L43.7053,21.967 L49.5068,21.967 Z" style="stroke:none;fill-rule:nonzero;fill:#fcfcfc;fill-opacity:1;"/>
        </g>
        <g id="Shape6">
            <desc shapeID="6" type="0" basicInfo-basicType="0" basicInfo-roundedRectRadius="12" basicInfo-polygonSides="6" basicInfo-starPoints="5" bounding="rect(-8.88,-10.1095,17.76,20.219)" text="" font-familyName="" font-pixelSize="20" font-bold="0" font-underline="0" font-alignment="1" strokeStyle="0" markerStart="0" markerEnd="0" shadowEnabled="0" shadowOffsetX="0" shadowOffsetY="2" shadowBlur="4" shadowOpacity="160" blurEnabled="0" blurRadius="4" transform="matrix(0.758467,0,0,0.758467,56.6517,21.3303)" pers-center="0,0" pers-size="0,0" pers-start="0,0" pers-end="0,0" locked="0" mesh="" flag=""/>
            <path id="shapePath6" d="M54.8769,28.998 L49.9165,13.6625 L52.9655,13.6625 L55.0589,20.6473 C55.6505,22.5821 56.1746,24.3569 56.5607,26.222 L56.6062,26.222 C57.0157,24.4024 57.5846,22.5366 58.1762,20.6708 L60.4053,13.6625 L63.3869,13.6625 L58.0852,28.998 L54.8769,28.998 Z" style="stroke:none;fill-rule:nonzero;fill:#fcfcfc;fill-opacity:1;"/>
        </g>
        <g id="Shape7">
            <desc shapeID="7" type="0" basicInfo-basicType="0" basicInfo-roundedRectRadius="12" basicInfo-polygonSides="6" basicInfo-starPoints="5" bounding="rect(-6.78,-10.1845,13.56,20.369)" text="" font-familyName="" font-pixelSize="20" font-bold="0" font-underline="0" font-alignment="1" strokeStyle="0" markerStart="0" markerEnd="0" shadowEnabled="0" shadowOffsetX="0" shadowOffsetY="2" shadowBlur="4" shadowOpacity="160" blurEnabled="0" blurRadius="4" transform="matrix(0.758467,0,0,0.758467,70.1896,21.2734)" pers-center="0,0" pers-size="0,0" pers-start="0,0" pers-end="0,0" locked="0" mesh="" flag=""/>
            <path id="shapePath7" d="M65.048,13.8673 C66.0719,13.6853 67.4599,13.5488 69.3257,13.5488 C71.3736,13.5488 72.8526,13.9811 73.8302,14.8002 C74.7404,15.5511 75.332,16.7571 75.332,18.1906 C75.332,19.6468 74.8769,20.83 74.035,21.6492 C72.8973,22.7641 71.168,23.3095 69.1884,23.3095 C68.6651,23.3095 68.21,23.2875 67.8232,23.1957 L67.8232,28.998 L65.0472,28.998 L65.0472,13.8673 L65.048,13.8673 M67.8247,20.9886 C68.188,21.1016 68.6211,21.1259 69.1899,21.1259 C71.2833,21.1259 72.5568,20.0784 72.5568,18.3036 C72.5568,16.597 71.3736,15.7096 69.4402,15.7096 C68.6658,15.7096 68.1205,15.7779 67.8247,15.8462 L67.8247,20.9886 Z" style="stroke:none;fill-rule:nonzero;fill:#fcfcfc;fill-opacity:1;"/>
        </g>
        <g id="Shape8">
            <desc shapeID="8" type="0" basicInfo-basicType="0" basicInfo-roundedRectRadius="12" basicInfo-polygonSides="6" basicInfo-starPoints="5" bounding="rect(-2.2795,-2.37,4.559,4.74)" text="" font-familyName="" font-pixelSize="20" font-bold="0" font-underline="0" font-alignment="1" strokeStyle="0" markerStart="0" markerEnd="0" shadowEnabled="0" shadowOffsetX="0" shadowOffsetY="2" shadowBlur="4" shadowOpacity="160" blurEnabled="0" blurRadius="4" transform="matrix(0.758467,0,0,0.758467,75.811,27.4507)" pers-center="0,0" pers-size="0,0" pers-start="0,0" pers-end="0,0" locked="0" mesh="" flag=""/>
            <path id="shapePath8" d="M74.0821,27.4507 C74.0821,26.404 74.8102,25.6531 75.8106,25.6531 C76.8353,25.6531 77.5399,26.382 77.5399,27.4507 C77.5399,28.4754 76.8573,29.2483 75.7878,29.2483 C74.7867,29.2483 74.0821,28.4754 74.0821,27.4507 Z" style="stroke:none;fill-rule:nonzero;fill:#fcfcfc;fill-opacity:1;"/>
        </g>
        <g id="Shape9">
            <desc shapeID="9" type="0" basicInfo-basicType="0" basicInfo-roundedRectRadius="12" basicInfo-polygonSides="6" basicInfo-starPoints="5" bounding="rect(-5.8495,-7.62,11.699,15.24)" text="" font-familyName="" font-pixelSize="20" font-bold="0" font-underline="0" font-alignment="1" strokeStyle="0" markerStart="0" markerEnd="0" shadowEnabled="0" shadowOffsetX="0" shadowOffsetY="2" shadowBlur="4" shadowOpacity="160" blurEnabled="0" blurRadius="4" transform="matrix(0.758467,0,0,0.758467,83.5231,23.446)" pers-center="0,0" pers-size="0,0" pers-start="0,0" pers-end="0,0" locked="0" mesh="" flag=""/>
            <path id="shapePath9" d="M87.9377,28.6567 C87.3461,28.9297 86.1849,29.2255 84.7977,29.2255 C81.3383,29.2255 79.0864,26.9964 79.0864,23.5598 C79.0864,20.2384 81.3618,17.6665 85.2528,17.6665 C86.2767,17.6665 87.3226,17.894 87.9597,18.1671 L87.4599,20.2832 C87.0041,20.0557 86.3442,19.8509 85.3438,19.8509 C83.2049,19.8509 81.9307,21.4201 81.9534,23.4452 C81.9534,25.7206 83.4317,27.0184 85.3438,27.0184 C86.2994,27.0184 87.0041,26.8128 87.5509,26.5861 L87.9377,28.6567 Z" style="stroke:none;fill-rule:nonzero;fill:#fcfcfc;fill-opacity:1;"/>
        </g>
        <g id="Shape10">
            <desc shapeID="10" type="0" basicInfo-basicType="0" basicInfo-roundedRectRadius="12" basicInfo-polygonSides="6" basicInfo-starPoints="5" bounding="rect(-7.4095,-7.6345,14.819,15.269)" text="" font-familyName="" font-pixelSize="20" font-bold="0" font-underline="0" font-alignment="1" strokeStyle="0" markerStart="0" markerEnd="0" shadowEnabled="0" shadowOffsetX="0" shadowOffsetY="2" shadowBlur="4" shadowOpacity="160" blurEnabled="0" blurRadius="4" transform="matrix(0.758467,0,0,0.758467,94.7188,23.4585)" pers-center="0,0" pers-size="0,0" pers-start="0,0" pers-end="0,0" locked="0" mesh="" flag=""/>
            <path id="shapePath10" d="M100.339,23.3557 C100.339,27.428 97.4724,29.249 94.6509,29.249 C91.5336,29.249 89.0989,27.1102 89.0989,23.5385 C89.0989,19.8979 91.4881,17.668 94.8329,17.668 C98.1323,17.6672 100.339,19.9882 100.339,23.3557 M91.9879,23.4695 C91.9879,25.6076 93.0574,27.2232 94.7412,27.2232 C96.3347,27.2232 97.4489,25.6759 97.4489,23.4232 C97.4489,21.6947 96.6753,19.6916 94.7639,19.6916 C92.7851,19.6916 91.9879,21.6257 91.9879,23.4695 Z" style="stroke:none;fill-rule:nonzero;fill:#fcfcfc;fill-opacity:1;"/>
        </g>
        <g id="Shape11">
            <desc shapeID="11" type="0" basicInfo-basicType="0" basicInfo-roundedRectRadius="12" basicInfo-polygonSides="6" basicInfo-starPoints="5" bounding="rect(-10.8295,-7.47,21.659,14.94)" text="" font-familyName="" font-pixelSize="20" font-bold="0" font-underline="0" font-alignment="1" strokeStyle="0" markerStart="0" markerEnd="0" shadowEnabled="0" shadowOffsetX="0" shadowOffsetY="2" shadowBlur="4" shadowOpacity="160" blurEnabled="0" blurRadius="4" transform="matrix(0.758467,0,0,0.758467,110.76,23.3322)" pers-center="0,0" pers-size="0,0" pers-start="0,0" pers-end="0,0" locked="0" mesh="" flag=""/>
            <path id="shapePath11" d="M102.637,21.2161 C102.637,19.9419 102.591,18.8724 102.546,17.9168 L104.935,17.9168 L105.071,19.5551 L105.14,19.5551 C105.663,18.6904 106.665,17.6665 108.553,17.6665 C110.009,17.6665 111.147,18.4856 111.625,19.7143 L111.671,19.7143 C112.058,19.1 112.512,18.6449 113.013,18.3264 C113.65,17.894 114.357,17.6665 115.289,17.6665 C117.109,17.6665 118.974,18.918 118.974,22.4676 L118.974,28.998 L116.244,28.998 L116.244,22.8772 C116.244,21.0341 115.606,19.9426 114.265,19.9426 C113.309,19.9426 112.604,20.6253 112.308,21.4209 C112.217,21.6712 112.171,22.036 112.171,22.3538 L112.171,28.998 L109.44,28.998 L109.44,22.5821 C109.44,21.0341 108.826,19.9426 107.529,19.9426 C106.482,19.9426 105.777,20.7618 105.504,21.5127 C105.413,21.8085 105.367,22.127 105.367,22.4448 L105.367,28.998 L102.636,28.998 L102.636,21.2161 L102.637,21.2161 Z" style="stroke:none;fill-rule:nonzero;fill:#fcfcfc;fill-opacity:1;"/>
        </g>
        <g id="Shape12">
            <desc shapeID="12" type="0" basicInfo-basicType="0" basicInfo-roundedRectRadius="12" basicInfo-polygonSides="6" basicInfo-starPoints="5" bounding="rect(-2.2645,-7.41,4.52899,14.82)" text="" font-familyName="" font-pixelSize="20" font-bold="0" font-underline="0" font-alignment="1" strokeStyle="0" markerStart="0" markerEnd="0" shadowEnabled="0" shadowOffsetX="0" shadowOffsetY="2" shadowBlur="4" shadowOpacity="160" blurEnabled="0" blurRadius="4" transform="matrix(0.758467,0,0,0.758467,123.309,23.628)" pers-center="0,0" pers-size="0,0" pers-start="0,0" pers-end="0,0" locked="0" mesh="" flag=""/>
            <path id="shapePath12" d="M121.591,19.8054 C121.591,18.7587 122.297,18.0078 123.32,18.0078 C124.345,18.0078 125.026,18.7359 125.026,19.8054 C125.026,20.8065 124.345,21.5802 123.274,21.5802 C122.297,21.5809 121.591,20.8065 121.591,19.8054 M121.591,27.4735 C121.591,26.4268 122.297,25.6759 123.32,25.6759 C124.345,25.6759 125.026,26.404 125.026,27.4735 C125.026,28.4746 124.345,29.2483 123.274,29.2483 C122.297,29.2483 121.591,28.4754 121.591,27.4735 Z" style="stroke:none;fill-rule:nonzero;fill:#fcfcfc;fill-opacity:1;"/>
        </g>
        <g id="Shape13">
            <desc shapeID="13" type="0" basicInfo-basicType="0" basicInfo-roundedRectRadius="12" basicInfo-polygonSides="6" basicInfo-starPoints="5" bounding="rect(-2.2645,-7.41,4.52899,14.82)" text="" font-familyName="" font-pixelSize="20" font-bold="0" font-underline="0" font-alignment="1" strokeStyle="0" markerStart="0" markerEnd="0" shadowEnabled="0" shadowOffsetX="0" shadowOffsetY="2" shadowBlur="4" shadowOpacity="160" blurEnabled="0" blurRadius="4" transform="matrix(0.758467,0,0,0.758467,128.678,23.628)" pers-center="0,0" pers-size="0,0" pers-start="0,0" pers-end="0,0" locked="0" mesh="" flag=""/>
            <path id="shapePath13" d="M126.96,19.8054 C126.96,18.7587 127.666,18.0078 128.689,18.0078 C129.714,18.0078 130.396,18.7359 130.396,19.8054 C130.396,20.8065 129.714,21.5802 128.643,21.5802 C127.666,21.5809 126.96,20.8065 126.96,19.8054 M126.96,27.4735 C126.96,26.4268 127.666,25.6759 128.689,25.6759 C129.714,25.6759 130.396,26.404 130.396,27.4735 C130.396,28.4746 129.714,29.2483 128.643,29.2483 C127.666,29.2483 126.96,28.4754 126.96,27.4735 Z" style="stroke:none;fill-rule:nonzero;fill:#fcfcfc;fill-opacity:1;"/>
        </g>
        <g id="Shape14">
            <desc shapeID="14" type="0" basicInfo-basicType="0" basicInfo-roundedRectRadius="12" basicInfo-polygonSides="6" basicInfo-starPoints="5" bounding="rect(-2.2795,-2.37,4.55899,4.74)" text="" font-familyName="" font-pixelSize="20" font-bold="0" font-underline="0" font-alignment="1" strokeStyle="0" markerStart="0" markerEnd="0" shadowEnabled="0" shadowOffsetX="0" shadowOffsetY="2" shadowBlur="4" shadowOpacity="160" blurEnabled="0" blurRadius="4" transform="matrix(0.758467,0,0,0.758467,134.059,27.4507)" pers-center="0,0" pers-size="0,0" pers-start="0,0" pers-end="0,0" locked="0" mesh="" flag=""/>
            <path id="shapePath14" d="M132.33,27.4507 C132.33,26.404 133.059,25.6531 134.059,25.6531 C135.084,25.6531 135.788,26.382 135.788,27.4507 C135.788,28.4754 135.106,29.2483 134.036,29.2483 C133.036,29.2483 132.33,28.4754 132.33,27.4507 Z" style="stroke:none;fill-rule:nonzero;fill:#fcfcfc;fill-opacity:1;"/>
        </g>
    </g>
</svg>
